<svg width="241" height="267" viewBox="0 0 241 267" fill="none" xmlns="http://www.w3.org/2000/svg">
<g clip-path="url(#clip0)">
<path d="M163.932 165.411C295.338 253.311 252.631 286.064 81.9661 256.233C37.3739 248.438 0 215.571 0 165.411C0 115.252 36.6975 74.59 81.9661 74.59C127.235 74.59 122.233 137.518 163.932 165.411Z" fill="#3F3D56"/>
<path opacity="0.1" d="M175.681 251.043C204.351 251.043 227.592 248.964 227.592 246.399C227.592 243.835 204.351 241.756 175.681 241.756C147.01 241.756 123.769 243.835 123.769 246.399C123.769 248.964 147.01 251.043 175.681 251.043Z" fill="black"/>
<path opacity="0.1" d="M73.2989 97.9857C88.4949 97.9857 100.814 95.9067 100.814 93.3422C100.814 90.7776 88.4949 88.6987 73.2989 88.6987C58.103 88.6987 45.7843 90.7776 45.7843 93.3422C45.7843 95.9067 58.103 97.9857 73.2989 97.9857Z" fill="black"/>
<path opacity="0.1" d="M71.8569 104.773C60.0512 104.771 48.4857 108.108 38.4963 114.398C28.507 120.688 20.5013 129.675 15.4042 140.321C21.2634 133.849 28.4154 128.679 36.3982 125.144C44.3809 121.608 53.0168 119.787 61.7478 119.796C96.3019 119.796 124.315 147.802 124.315 182.347C124.329 191.693 122.239 200.922 118.201 209.35C128.661 197.854 134.447 182.865 134.424 167.324C134.424 132.779 106.411 104.773 71.8569 104.773Z" fill="black"/>
<path opacity="0.3" d="M124.315 182.074C124.329 191.42 122.239 200.649 118.201 209.077C112.341 215.548 105.189 220.719 97.2065 224.254C89.2238 227.789 80.5879 229.611 71.8569 229.601C37.3028 229.601 9.28948 201.596 9.28948 167.051C9.27537 157.705 11.3652 148.476 15.4042 140.047C21.2634 133.576 28.4154 128.406 36.3982 124.871C44.3809 121.335 53.0168 119.513 61.7478 119.523C96.3019 119.523 124.315 147.529 124.315 182.074Z" fill="#A6DEAF"/>
<path d="M71.857 229.909C37.1876 229.909 8.982 201.711 8.982 167.051C8.95681 157.658 11.0576 148.381 15.1269 139.915C20.2492 129.217 28.2941 120.185 38.3326 113.864C48.371 107.543 59.9933 104.19 71.857 104.193C106.526 104.193 134.732 132.391 134.732 167.051C134.732 175.306 133.106 183.48 129.947 191.106C126.787 198.733 122.156 205.662 116.317 211.499C110.479 217.336 103.547 221.966 95.9188 225.125C88.2902 228.284 80.114 229.909 71.857 229.909V229.909ZM71.857 104.807C48.0348 104.807 25.9844 118.692 15.6814 140.181C11.6519 148.564 9.57177 157.75 9.59686 167.051C9.59686 201.372 37.5266 229.294 71.857 229.294C80.0332 229.295 88.1295 227.685 95.6835 224.557C103.237 221.429 110.101 216.845 115.883 211.065C121.664 205.285 126.25 198.423 129.379 190.871C132.507 183.319 134.118 175.225 134.117 167.051C134.117 132.73 106.187 104.807 71.857 104.807V104.807Z" fill="white"/>
<path d="M215 230.703C210.456 236.644 210.976 244.674 210.976 244.674C210.976 244.674 218.863 243.071 223.407 237.129C227.952 231.188 227.432 223.158 227.432 223.158C227.432 223.158 219.545 224.761 215 230.703Z" fill="#D0CDE1"/>
<path d="M217.978 232.037C217.096 239.465 211.127 244.862 211.127 244.862C211.127 244.862 206.587 238.217 207.469 230.79C208.351 223.363 214.32 217.966 214.32 217.966C214.32 217.966 218.86 224.61 217.978 232.037Z" fill="#A6DEAF"/>
<path d="M53.1318 58.0541C67.3904 58.0541 78.9492 46.4984 78.9492 32.2436C78.9492 17.9889 67.3904 6.43315 53.1318 6.43315C38.8733 6.43315 27.3144 17.9889 27.3144 32.2436C27.3144 46.4984 38.8733 58.0541 53.1318 58.0541Z" fill="#FF6584"/>
<path d="M109.106 58.5591C109.119 84.3404 93.792 93.3485 74.8822 93.3577C74.443 93.3579 74.0059 93.3532 73.5708 93.3436C72.6945 93.3252 71.8272 93.2856 70.969 93.2251C53.9017 92.0253 40.6363 82.5689 40.6246 58.5924C40.6126 33.7796 72.3183 2.45098 74.6961 0.134525C74.6982 0.134525 74.6982 0.134524 74.7003 0.132419C74.7906 0.0441343 74.8369 0 74.8369 0C74.8369 0 109.093 32.7799 109.106 58.5591Z" fill="#A6DEAF"/>
<path d="M73.6341 89.4147L86.1487 71.9158L73.6035 91.3351L73.5708 93.3436C72.6944 93.3252 71.8272 93.2857 70.969 93.2251L72.3057 67.4327L72.2951 67.2331L72.3182 67.1952L72.4452 64.758L59.8495 45.3026L72.4822 62.9322L72.5139 63.4491L73.5237 43.9619L62.7393 23.8564L73.6544 40.5372L74.6961 0.134529L74.7002 7.24792e-05L74.7003 0.132424L74.5393 31.9941L85.2574 19.3577L74.4944 34.738L74.2191 52.1869L84.2291 35.4371L74.1805 54.7523L74.0276 64.4547L88.5548 41.1392L73.9725 67.8395L73.6341 89.4147Z" fill="#3F3D56"/>
<path d="M176.142 73.3303C172.86 67.7868 166.368 67.5284 166.368 67.5284C166.368 67.5284 160.041 66.7196 155.982 75.1624C152.2 83.0319 146.979 90.6299 155.142 92.4721L156.616 87.8841L157.53 92.8137C158.692 92.8973 159.858 92.9172 161.022 92.8734C169.764 92.5912 178.09 92.9559 177.822 89.8198C177.465 85.6507 179.299 78.6643 176.142 73.3303Z" fill="#2F2E41"/>
<path d="M161.664 125.348L162.508 133.787L182.064 131.678L182.486 125.348H161.664Z" fill="#A0616A"/>
<path d="M159.554 129.99L158.991 134.912C158.991 134.912 152.519 143.914 153.082 159.386C153.644 174.858 144.218 243.638 150.971 244.2C157.725 244.763 169.824 245.607 170.387 243.497C170.95 241.387 172.075 161.355 172.075 161.355C172.075 161.355 175.03 243.597 180.094 243.878C185.159 244.159 202.183 244.722 202.183 242.612C202.183 240.502 187.27 146.305 187.27 146.305L184.878 138.429L182.486 128.724C182.486 128.724 167.573 131.255 163.493 130.271C159.413 129.286 159.554 129.99 159.554 129.99Z" fill="#2F2E41"/>
<path d="M166.307 91.0285C171.28 91.0285 175.311 86.9982 175.311 82.0267C175.311 77.0551 171.28 73.0248 166.307 73.0248C161.334 73.0248 157.302 77.0551 157.302 82.0267C157.302 86.9982 161.334 91.0285 166.307 91.0285Z" fill="#A0616A"/>
<path d="M182.064 96.936L180.355 99.4227L179.26 101.013L177.421 103.687L168.276 104.391C168.276 104.391 166.055 103.673 163.491 102.625C162.545 102.237 161.55 101.804 160.604 101.344C156.937 99.5634 153.993 97.3903 157.302 95.9514C157.89 95.6991 158.454 95.396 158.989 95.0456C159.476 94.7276 159.929 94.361 160.341 93.9513C161.189 93.1021 161.817 92.0589 162.17 90.9123C162.523 89.7657 162.591 88.5503 162.367 87.3715L171.231 86.1056C170.973 88.3533 173.209 90.8049 175.715 92.8064C176.538 93.466 177.392 94.0751 178.195 94.6124C180.301 96.0217 182.064 96.936 182.064 96.936Z" fill="#A0616A"/>
<path d="M169.965 99.6084C169.965 99.6084 161.312 98.1315 159.342 95.0371C159.342 95.0371 150.831 96.092 151.534 100.593C152.238 105.094 159.272 129.708 159.272 129.708C159.272 129.708 176.859 126.333 183.33 128.864L187.27 97.4986C187.27 97.4986 185.863 94.4042 183.19 95.2481C180.517 96.092 179.461 95.3184 179.461 95.3184C179.461 95.3184 176.436 99.6084 169.965 99.6084Z" fill="#D0CDE1"/>
<path d="M177.843 148.978C177.843 148.978 183.893 155.729 180.516 156.854C177.14 157.98 173.06 152.353 173.06 152.353L177.843 148.978Z" fill="#A0616A"/>
<path d="M179.813 149.54C179.813 149.54 174.889 152.916 176.718 155.167C178.547 157.417 184.878 153.197 184.878 152.353C184.878 151.51 179.813 149.54 179.813 149.54Z" fill="#A0616A"/>
<path d="M167.714 131.255L163.634 131.959L160.96 112.127C161.115 108.529 160.996 104.924 160.604 101.344C160.306 98.9529 159.808 96.6546 158.989 95.0456C159.476 94.7276 159.929 94.3609 160.341 93.9513C161.321 95.5027 163.107 98.7883 163.491 102.625C163.592 103.586 163.592 104.555 163.493 105.516C162.789 112.127 162.93 113.392 162.93 113.392L167.714 131.255Z" fill="#2F2E41"/>
<path d="M158.287 96.2327C158.287 96.2327 151.675 94.4042 151.112 98.3425C150.549 102.281 151.253 112.408 152.8 116.205C154.348 120.003 159.694 132.381 159.694 132.381C159.694 132.381 169.402 144.758 169.824 147.712C170.246 150.666 172.356 153.76 172.356 153.76L179.11 149.4L165.885 127.036L160.116 111.564C160.116 111.564 162.508 97.4986 158.287 96.2327Z" fill="#D0CDE1"/>
<path d="M184.174 96.7953L187.27 97.4986C187.27 97.4986 190.084 109.595 188.958 116.065C187.832 122.535 187.692 124.785 187.692 124.785L186.707 143.211C186.707 143.211 186.988 155.026 185.019 153.197C183.049 151.369 179.11 150.525 179.11 150.525C179.11 150.525 179.532 145.321 181.079 144.055C181.079 144.055 182.908 134.35 181.783 130.13C180.657 125.911 184.174 96.7953 184.174 96.7953Z" fill="#D0CDE1"/>
<path d="M185.3 110.439L181.712 131.185L179.532 130.271L183.33 110.439L179.26 101.013L175.715 92.8064C176.538 93.466 177.392 94.0751 178.195 94.6124L180.355 99.4227L185.3 110.439Z" fill="#2F2E41"/>
<path d="M174.691 72.7959L168.277 69.437L159.419 70.8111L157.586 78.9032L162.148 78.7277L163.423 75.7547V78.6788L165.528 78.5977L166.749 73.8646L167.513 78.9032L174.996 78.7504L174.691 72.7959Z" fill="#2F2E41"/>
<path d="M162.02 246.399C164.434 246.399 166.391 245.666 166.391 244.761C166.391 243.855 164.434 243.122 162.02 243.122C159.605 243.122 157.648 243.855 157.648 244.761C157.648 245.666 159.605 246.399 162.02 246.399Z" fill="#2F2E41"/>
<path d="M191.527 246.399C193.942 246.399 195.899 245.666 195.899 244.761C195.899 243.855 193.942 243.122 191.527 243.122C189.113 243.122 187.156 243.855 187.156 244.761C187.156 245.666 189.113 246.399 191.527 246.399Z" fill="#2F2E41"/>
<path d="M81.0209 199.403C76.5492 202.312 71.3961 204.005 66.07 204.316C60.744 204.626 55.4291 203.542 50.6498 201.172L51.3265 199.792C57.0872 202.621 63.6167 203.485 69.9154 202.252C76.214 201.018 81.9349 197.755 86.2022 192.962C90.4694 188.169 93.048 182.11 93.5433 175.712C94.0385 169.315 92.4231 162.931 88.9443 157.539C85.4655 152.147 80.3149 148.042 74.2811 145.855C68.2473 143.667 61.6626 143.517 55.535 145.426C49.4074 147.335 44.0745 151.2 40.3526 156.427C36.6307 161.655 34.7249 167.958 34.927 174.372L33.3905 174.419C33.2203 169.022 34.4678 163.676 37.0087 158.912C39.5496 154.148 43.2952 150.133 47.872 147.267C52.4488 144.401 57.697 142.784 63.0935 142.578C68.49 142.372 73.8463 143.584 78.6285 146.092C83.4106 148.601 87.4516 152.318 90.3486 156.875C93.2456 161.431 94.8975 166.667 95.1395 172.061C95.3816 177.454 94.2054 182.817 91.7281 187.615C89.2509 192.412 85.5591 196.477 81.0209 199.403V199.403Z" fill="white"/>
<path d="M67.1167 171.613C62.5712 172.619 56.5219 173.232 52.114 172.592L57.6474 176.805L42.1566 186.793L42.9897 188.084L58.4806 178.096L60.0378 184.874C61.2726 180.596 64.3262 175.339 67.1167 171.613Z" fill="white"/>
</g>
<defs>
<clipPath id="clip0">
<rect width="241" height="267" fill="white"/>
</clipPath>
</defs>
</svg>
